<svg width="24" height="26" viewBox="0 0 24 26" fill="none" xmlns="http://www.w3.org/2000/svg">
<path d="M20.0579 3.78339C18.0265 1.68562 15.3033 0.475563 12.3898 0.375954C9.33309 0.271563 6.4397 1.36966 4.24298 3.46803C2.04912 5.56381 0.821402 8.39909 0.785941 11.4517C0.756922 13.9505 1.53275 16.3239 3.02934 18.3153C4.44685 20.2014 5.12008 22.5617 5.14379 25.7311H9.01056V17.0924H8.01287C6.36427 17.0924 5.02299 15.7511 5.02299 14.1025C5.02299 12.4539 6.36427 11.1127 8.01287 11.1127C9.66147 11.1127 11.0027 12.4539 11.0027 14.1025V15.1002H12.9981V14.1025C12.9981 12.4539 14.3393 11.1127 15.9879 11.1127C17.6365 11.1127 18.9778 12.4539 18.9778 14.1025C18.9778 15.7511 17.6365 17.0924 15.9879 17.0924H14.9903V25.7311H18.8574C18.8905 22.5611 19.5711 20.1906 20.9922 18.2874C22.4468 16.3396 23.2156 14.0217 23.2156 11.5845C23.2156 8.65668 22.0942 5.88621 20.0579 3.78339Z" fill="white"/>
</svg>
