<svg width="188" height="113" viewBox="0 0 188 113" fill="none" xmlns="http://www.w3.org/2000/svg">
<g opacity="0.2">
<path d="M153.729 107.052C153.729 104.144 151.356 101.786 148.429 101.786C145.502 101.786 143.13 104.144 143.13 107.052C143.13 109.96 145.502 112.318 148.429 112.318C151.356 112.318 153.729 109.96 153.729 107.052Z" fill="white"/>
<path d="M187.733 71.7912C187.733 68.8829 185.361 66.5253 182.434 66.5253C179.507 66.5253 177.135 68.8829 177.135 71.7912C177.135 74.6995 179.507 77.0571 182.434 77.0571C185.361 77.0571 187.733 74.6995 187.733 71.7912Z" fill="white"/>
<path d="M187.733 5.72966C187.733 2.82137 185.361 0.463784 182.434 0.463784C179.507 0.463784 177.135 2.82137 177.135 5.72966C177.135 8.63794 179.507 10.9956 182.434 10.9956C185.361 10.9956 187.733 8.63794 187.733 5.72966Z" fill="white"/>
<path d="M153.729 36.5583C153.729 33.6501 151.356 31.2924 148.429 31.2924C145.502 31.2924 143.13 33.6501 143.13 36.5583C143.13 39.4666 145.502 41.8242 148.429 41.8242C151.356 41.8242 153.729 39.4666 153.729 36.5583Z" fill="white"/>
<path d="M125.11 107.052C125.11 104.144 122.738 101.786 119.811 101.786C116.884 101.786 114.512 104.144 114.512 107.052C114.512 109.96 116.884 112.318 119.811 112.318C122.738 112.318 125.11 109.96 125.11 107.052Z" fill="white"/>
<path d="M159.115 71.7912C159.115 68.8829 156.743 66.5253 153.816 66.5253C150.889 66.5253 148.517 68.8829 148.517 71.7912C148.517 74.6995 150.889 77.0571 153.816 77.0571C156.743 77.0571 159.115 74.6995 159.115 71.7912Z" fill="white"/>
<path d="M159.115 5.73015C159.115 2.82186 156.743 0.464272 153.816 0.464272C150.889 0.464272 148.517 2.82186 148.517 5.73015C148.517 8.63843 150.889 10.9961 153.816 10.9961C156.743 10.9961 159.115 8.63843 159.115 5.73015Z" fill="white"/>
<path d="M125.11 36.5583C125.11 33.6501 122.738 31.2924 119.811 31.2924C116.884 31.2924 114.512 33.6501 114.512 36.5583C114.512 39.4666 116.884 41.8242 119.811 41.8242C122.738 41.8242 125.11 39.4666 125.11 36.5583Z" fill="white"/>
<path d="M85.8741 107.052C85.8741 108.093 86.1849 109.112 86.7672 109.978C87.3495 110.843 88.1771 111.518 89.1454 111.917C90.1138 112.316 91.1793 112.42 92.2073 112.217C93.2352 112.014 94.1795 111.512 94.9206 110.776C95.6617 110.039 96.1664 109.101 96.3709 108.079C96.5754 107.058 96.4704 105.999 96.0693 105.037C95.6683 104.075 94.989 103.252 94.1176 102.673C93.2461 102.095 92.2215 101.786 91.1734 101.786C90.4766 101.783 89.7861 101.917 89.1417 102.18C88.4973 102.444 87.9118 102.832 87.4191 103.321C86.9264 103.811 86.5361 104.393 86.271 105.033C86.0058 105.673 85.8709 106.36 85.8741 107.052Z" fill="white"/>
<path d="M119.879 71.697C119.879 72.7385 120.19 73.7566 120.772 74.6226C121.354 75.4885 122.182 76.1635 123.15 76.562C124.119 76.9606 125.184 77.0649 126.212 76.8617C127.24 76.6585 128.184 76.157 128.925 75.4205C129.667 74.6841 130.171 73.7458 130.376 72.7243C130.58 71.7028 130.475 70.644 130.074 69.6818C129.673 68.7196 128.994 67.8971 128.122 67.3185C127.251 66.7399 126.226 66.4311 125.178 66.4311C123.773 66.4311 122.425 66.9859 121.431 67.9734C120.437 68.961 119.879 70.3004 119.879 71.697Z" fill="white"/>
<path d="M119.879 5.63496C119.879 6.67646 120.19 7.69458 120.772 8.56056C121.354 9.42653 122.182 10.1015 123.15 10.5C124.119 10.8986 125.184 11.0029 126.212 10.7997C127.24 10.5965 128.184 10.095 128.925 9.35852C129.667 8.62207 130.171 7.68377 130.376 6.66229C130.58 5.6408 130.475 4.582 130.074 3.61978C129.673 2.65755 128.994 1.83512 128.122 1.25649C127.251 0.677864 126.226 0.369044 125.178 0.369044C123.773 0.369044 122.425 0.923841 121.431 1.91139C120.437 2.89894 119.879 4.23835 119.879 5.63496Z" fill="white"/>
<path d="M85.873 36.5583C85.873 37.5998 86.1839 38.6179 86.7662 39.4839C87.3485 40.3499 88.1761 41.0248 89.1444 41.4234C90.1127 41.822 91.1783 41.9262 92.2062 41.723C93.2342 41.5198 94.1785 41.0183 94.9196 40.2819C95.6607 39.5454 96.1654 38.6071 96.3699 37.5856C96.5743 36.5641 96.4694 35.5054 96.0683 34.5431C95.6672 33.5809 94.988 32.7585 94.1165 32.1799C93.2451 31.6012 92.2205 31.2924 91.1724 31.2924C89.7669 31.2924 88.419 31.8472 87.4252 32.8347C86.4314 33.8223 85.873 35.1617 85.873 36.5583Z" fill="white"/>
<path d="M67.8535 107.052C67.8535 104.144 65.481 101.786 62.5542 101.786C59.6275 101.786 57.2549 104.144 57.2549 107.052C57.2549 109.96 59.6275 112.318 62.5542 112.318C65.481 112.318 67.8535 109.96 67.8535 107.052Z" fill="white"/>
<path d="M101.859 71.7912C101.859 68.8829 99.4868 66.5253 96.5601 66.5253C93.6334 66.5253 91.2607 68.8829 91.2607 71.7912C91.2607 74.6995 93.6334 77.0571 96.5601 77.0571C99.4868 77.0571 101.859 74.6995 101.859 71.7912Z" fill="white"/>
<path d="M101.859 5.73015C101.859 2.82186 99.4868 0.464272 96.5601 0.464272C93.6334 0.464272 91.2607 2.82186 91.2607 5.73015C91.2607 8.63843 93.6334 10.9961 96.5601 10.9961C99.4868 10.9961 101.859 8.63843 101.859 5.73015Z" fill="white"/>
<path d="M67.8535 36.5583C67.8535 33.6501 65.481 31.2924 62.5542 31.2924C59.6275 31.2924 57.2549 33.6501 57.2549 36.5583C57.2549 39.4666 59.6275 41.8242 62.5542 41.8242C65.481 41.8242 67.8535 39.4666 67.8535 36.5583Z" fill="white"/>
<path d="M39.2403 107.052C39.2403 104.144 36.8677 101.786 33.9409 101.786C31.0142 101.786 28.6416 104.144 28.6416 107.052C28.6416 109.96 31.0142 112.318 33.9409 112.318C36.8677 112.318 39.2403 109.96 39.2403 107.052Z" fill="white"/>
<path d="M73.2452 71.7912C73.2452 68.8829 70.8726 66.5253 67.9458 66.5253C65.0191 66.5253 62.6465 68.8829 62.6465 71.7912C62.6465 74.6995 65.0191 77.0571 67.9458 77.0571C70.8726 77.0571 73.2452 74.6995 73.2452 71.7912Z" fill="white"/>
<path d="M73.2452 5.73015C73.2452 2.82186 70.8726 0.464272 67.9458 0.464272C65.0191 0.464272 62.6465 2.82186 62.6465 5.73015C62.6465 8.63843 65.0191 10.9961 67.9458 10.9961C70.8726 10.9961 73.2452 8.63843 73.2452 5.73015Z" fill="white"/>
<path d="M39.2403 36.5583C39.2403 33.6501 36.8677 31.2924 33.9409 31.2924C31.0142 31.2924 28.6416 33.6501 28.6416 36.5583C28.6416 39.4666 31.0142 41.8242 33.9409 41.8242C36.8677 41.8242 39.2403 39.4666 39.2403 36.5583Z" fill="white"/>
<path d="M5.42882e-05 107.055C-0.00471442 108.103 0.303447 109.128 0.885484 110.001C1.46752 110.874 2.29727 111.556 3.26957 111.96C4.24186 112.364 5.31292 112.472 6.34714 112.27C7.38136 112.069 8.33217 111.567 9.07907 110.828C9.82598 110.089 10.3354 109.147 10.5427 108.12C10.7501 107.093 10.6461 106.029 10.2439 105.061C9.84172 104.093 9.15942 103.265 8.28347 102.683C7.40753 102.1 6.37733 101.789 5.32344 101.789C4.6255 101.786 3.93382 101.92 3.28809 102.183C2.64236 102.447 2.05532 102.834 1.56067 103.323C1.06603 103.813 0.673577 104.394 0.405757 105.035C0.137936 105.675 4.70477e-05 106.362 5.42882e-05 107.055Z" fill="white"/>
<path d="M34.0059 71.7018C34.0011 72.7491 34.3093 73.7742 34.8913 74.6472C35.4734 75.5203 36.3031 76.202 37.2754 76.6061C38.2477 77.0101 39.3188 77.1183 40.353 76.9169C41.3872 76.7155 42.338 76.2136 43.0849 75.4747C43.8318 74.7359 44.3412 73.7934 44.5486 72.7666C44.756 71.7398 44.652 70.675 44.2498 69.707C43.8476 68.739 43.1653 67.9114 42.2893 67.3291C41.4134 66.7468 40.3832 66.4359 39.3293 66.4359C37.9216 66.4359 36.5712 66.99 35.5736 67.9768C34.5759 68.9637 34.0123 70.303 34.0059 71.7018Z" fill="white"/>
<path d="M34.0059 5.63837C34.0011 6.68561 34.3093 7.71071 34.8913 8.58376C35.4734 9.45682 36.3031 10.1385 37.2754 10.5426C38.2477 10.9466 39.3188 11.0548 40.353 10.8534C41.3872 10.652 42.338 10.1501 43.0849 9.41127C43.8318 8.67244 44.3412 7.72991 44.5486 6.70313C44.756 5.67635 44.652 4.61152 44.2498 3.64353C43.8476 2.67554 43.1653 1.84796 42.2893 1.26564C41.4134 0.683315 40.3832 0.372467 39.3293 0.372456C37.9216 0.372442 36.5712 0.926474 35.5736 1.91334C34.5759 2.90021 34.0123 4.23956 34.0059 5.63837Z" fill="white"/>
<path d="M5.42882e-05 36.5622C-0.00471442 37.6094 0.303447 38.6345 0.885484 39.5076C1.46752 40.3806 2.29727 41.0624 3.26957 41.4664C4.24186 41.8705 5.31292 41.9786 6.34714 41.7772C7.38136 41.5758 8.33217 41.0739 9.07907 40.3351C9.82598 39.5962 10.3354 38.6537 10.5427 37.627C10.7501 36.6002 10.6461 35.5353 10.2439 34.5674C9.84172 33.5994 9.15942 32.7718 8.28347 32.1895C7.40753 31.6071 6.37733 31.2963 5.32344 31.2962C3.91575 31.2962 2.56537 31.8503 1.56773 32.8371C0.570089 33.824 0.00642387 35.1634 5.42882e-05 36.5622Z" fill="white"/>
</g>
</svg>
