<svg width="34" height="34" viewBox="0 0 34 34" fill="none" xmlns="http://www.w3.org/2000/svg">
<g clip-path="url(#clip0_83479_2726)">
<path d="M13.0123 12.7354C12.4622 12.7354 12.0146 13.1829 12.0146 13.733C12.0146 14.2831 12.4622 14.7307 13.0123 14.7307H14.01V13.733C14.01 13.1829 13.5624 12.7354 13.0123 12.7354Z" fill="white"/>
<path d="M20.9879 12.7354C20.4377 12.7354 19.9902 13.1829 19.9902 13.733V14.7307H20.9879C21.5379 14.7307 21.9855 14.2831 21.9855 13.733C21.9855 13.1829 21.538 12.7354 20.9879 12.7354Z" fill="white"/>
<path d="M17.9984 16.7227H16.0029V25.3614H17.9984V16.7227Z" fill="white"/>
<path d="M23.8554 31.6738H10.1445V34H23.8554V31.6738Z" fill="white"/>
<path d="M25.0579 3.41425C23.0265 1.31648 20.3033 0.106423 17.3898 0.00681343C14.3331 -0.0975772 11.4397 1.00052 9.24298 3.09889C7.04912 5.19467 5.8214 8.02995 5.78594 11.0825C5.75692 13.5814 6.53275 15.9547 8.02934 17.9461C9.44685 19.8323 10.1201 22.1926 10.1438 25.3619H14.0106V16.7233H13.0129C11.3643 16.7233 10.023 15.382 10.023 13.7334C10.023 12.0848 11.3643 10.7436 13.0129 10.7436C14.6615 10.7436 16.0027 12.0848 16.0027 13.7334V14.7311H17.9981V13.7334C17.9981 12.0848 19.3393 10.7436 20.9879 10.7436C22.6365 10.7436 23.9778 12.0848 23.9778 13.7334C23.9778 15.382 22.6365 16.7233 20.9879 16.7233H19.9903V25.3619H23.8574C23.8905 22.192 24.5711 19.8215 25.9922 17.9183C27.4468 15.9704 28.2156 13.6526 28.2156 11.2153C28.2156 8.28754 27.0942 5.51707 25.0579 3.41425Z" fill="white"/>
<path d="M23.8554 27.3545H10.1445V29.682H23.8554V27.3545Z" fill="white"/>
</g>
<defs>
<clipPath id="clip0_83479_2726">
<rect width="34" height="34" fill="white"/>
</clipPath>
</defs>
</svg>
